# xmcd
#
# Track frame offsets: 
#        150
#        22240
#        43479
#        69949
#        93306
#        136252
#        168479
#        194633
#        227900
#
# Disc length: 3344 seconds
#
# Revision: 2
# Processed by: cddbd v1.5.2PL0 Copyright (c) Steve Scherf et al.
# Submitted via: ExactAudioCopyFreeDBPlugin 1.0
#
DISCID=820d0e09
DTITLE=Various Artist - Jazz - smokin' CD1
DYEAR=2002
DGENRE=Jazz
TTITLE0=Donald Byrd - Wee Tina
TTITLE1=Herbie Hancock - Night walkers
TTITLE2=Booker Little - Bee Tee's minor plea
TTITLE3=Dexter Gordon - I should care
TTITLE4=Donald Byrd - Out of this world
TTITLE5=Booker Little - Life's a little blue
TTITLE6=Herbei Hancock - Kamili
TTITLE7=Dave Brubeck - Black and Blue
TTITLE8=Booker Little - The grand valse
EXTD=YEAR: 2002
EXTT0=
EXTT1=
EXTT2=
EXTT3=
EXTT4=
EXTT5=
EXTT6=
EXTT7=
EXTT8=
PLAYORDER=
